<svg id="图层_1" data-name="图层 1" xmlns="http://www.w3.org/2000/svg" xmlns:xlink="http://www.w3.org/1999/xlink" viewBox="0 0 128 128"><defs><style>.cls-1{fill:url(#未命名的渐变_99);}.cls-2{fill:url(#未命名的渐变_4);}.cls-3{fill:url(#未命名的渐变_116);}.cls-4{fill:url(#未命名的渐变_116-2);}</style><linearGradient id="未命名的渐变_99" x1="117.84" y1="17.56" x2="63.87" y2="88.15" gradientUnits="userSpaceOnUse"><stop offset="0" stop-color="#4aa9f8"/><stop offset="1" stop-color="#1973f5"/></linearGradient><linearGradient id="未命名的渐变_4" x1="30.93" y1="30.28" x2="100.25" y2="30.28" gradientUnits="userSpaceOnUse"><stop offset="0" stop-color="#53b2f9"/><stop offset="1" stop-color="#194df5"/></linearGradient><linearGradient id="未命名的渐变_116" x1="7.63" y1="25.1" x2="65.13" y2="111.9" gradientUnits="userSpaceOnUse"><stop offset="0" stop-color="#8af2ba"/><stop offset="1" stop-color="#4acbe8"/></linearGradient><linearGradient id="未命名的渐变_116-2" x1="10.86" y1="28.64" x2="67.46" y2="114.08" xlink:href="#未命名的渐变_116"/></defs><title>画板 1</title><path class="cls-1" d="M116.45,20H87.77a13.39,13.39,0,0,1,12.48,13.45,13.6,13.6,0,0,1-2,7h.06l-27,40.7a1.74,1.74,0,0,0,0,1.91L81.41,98.4a1.66,1.66,0,0,0,2.78,0l41-61.67C129.9,29.63,124.89,20,116.45,20Z"/><path class="cls-2" d="M87.77,20H32.61a1.7,1.7,0,0,0-1.39,2.66L42.53,39.77a1.7,1.7,0,0,0,1.4.76H98.28a13.6,13.6,0,0,0,2-7A13.39,13.39,0,0,0,87.77,20Z"/><path class="cls-3" d="M27.23,40.75a1.71,1.71,0,0,0,1.39-2.66L19.69,24.65A10.18,10.18,0,0,0,8.4,20.43C1,22.52-1.43,30.14,2.89,36.64L5.14,40a1.69,1.69,0,0,0,1.4.75Z"/><path class="cls-4" d="M71.48,101.43,64,90.75l-25.9-39A1.69,1.69,0,0,0,36.71,51H16.44a1.7,1.7,0,0,0-1.39,2.66l39.27,59c3.76,5.65,11.11,6.74,15.87,1.92A10.5,10.5,0,0,0,71.48,101.43Z"/></svg>